<svg width="13" height="10" viewBox="0 0 13 10" fill="none" xmlns="http://www.w3.org/2000/svg">
<path d="M0.187438 5.45832C-0.058796 5.21732 -0.0629654 4.82242 0.178125 4.57628C0.419216 4.33014 0.814272 4.32598 1.06051 4.56697L5.51898 8.9306C5.76521 9.1716 5.76938 9.5665 5.52829 9.81263C5.2872 10.0588 4.89214 10.0629 4.64591 9.82195L0.187438 5.45832Z" fill="#191310"/>
<path d="M11.8957 0.225578C12.1157 -0.0395762 12.5091 -0.076261 12.7743 0.14364C13.0396 0.36354 13.0763 0.756755 12.8563 1.02191L5.59546 9.77355C5.37547 10.0387 4.98211 10.0754 4.71685 9.85549C4.45159 9.63559 4.41489 9.24237 4.63488 8.97722L11.8957 0.225578Z" fill="#191310"/>
</svg>
