<svg width="20" height="20" viewBox="0 0 20 20" fill="none" xmlns="http://www.w3.org/2000/svg">
<rect width="20" height="20" rx="3" fill="#67D9B7"/>
<path d="M4.18744 10.4583C3.9412 10.2173 3.93703 9.82242 4.17813 9.57628C4.41922 9.33014 4.81427 9.32598 5.06051 9.56697L9.51898 13.9306C9.76521 14.1716 9.76938 14.5665 9.52829 14.8126C9.2872 15.0588 8.89214 15.0629 8.64591 14.8219L4.18744 10.4583Z" fill="#191310"/>
<path d="M15.8957 5.22558C16.1157 4.96042 16.5091 4.92374 16.7743 5.14364C17.0396 5.36354 17.0763 5.75676 16.8563 6.02191L9.59546 14.7735C9.37548 15.0387 8.98211 15.0754 8.71685 14.8555C8.45159 14.6356 8.41489 14.2424 8.63488 13.9772L15.8957 5.22558Z" fill="#191310"/>
</svg>
