<svg width="191" height="48" viewBox="0 0 191 48" fill="none" xmlns="http://www.w3.org/2000/svg">
<path d="M58.7493 32.377C58.5682 32.8684 58.3871 33.3597 58.3532 33.8626C58.2895 34.8381 58.4295 35.8395 58.6078 36.815C58.6831 37.3024 58.7787 37.7877 58.8742 38.273C59.1178 39.5101 59.3613 40.747 59.2699 42.0174C59.1553 43.487 58.6969 44.8397 57.3218 45.503C56.5706 45.8671 55.6157 46.0752 54.8136 45.9582C53.3494 45.7631 51.8979 45.3599 50.5101 44.8657C49.1477 44.3715 47.9127 44.5405 46.5758 44.9957C39.624 47.3758 32.5066 48.5464 25.1601 47.753C21.6332 47.3758 18.1573 46.6605 14.7705 45.581C14.4266 45.4712 14.0827 45.3496 13.7377 45.2276C13.0612 44.9883 12.3808 44.7476 11.6893 44.5926C11.1036 44.4625 10.4288 44.5275 9.8304 44.6706C9.1815 44.826 8.54067 45.0164 7.90069 45.2065C6.93333 45.4939 5.9679 45.7808 4.9794 45.9452C2.33109 46.3874 0.574031 44.9047 0.332118 42.1865C0.192063 40.5347 0.459441 38.935 0.930536 37.3742C1.26157 36.2947 2.20376 35.7225 3.05683 35.9826C3.97355 36.2687 4.54651 37.3352 4.36825 38.3757C4.32687 38.6163 4.2839 38.8569 4.24093 39.0975C4.11201 39.8194 3.9831 40.5412 3.89716 41.263C3.78257 42.2255 4.06268 42.4726 4.9794 42.2255C6.16351 41.9003 7.34761 41.5752 8.51898 41.185C10.3015 40.5997 11.9949 40.7818 13.7901 41.3411C16.744 42.2645 19.7489 43.0579 22.7791 43.6691C26.4842 44.3975 30.253 44.4755 33.9963 44.0723C37.052 43.7472 40.0696 43.1359 43.0235 42.2385C43.6057 42.0589 44.1856 41.8624 44.7661 41.6657C45.5313 41.4064 46.2977 41.1467 47.0723 40.9249C48.3456 40.5607 49.6315 40.7688 50.892 41.133C51.3046 41.2553 51.7156 41.3808 52.1262 41.5062C52.894 41.7407 53.6601 41.9746 54.4316 42.1865C55.5266 42.4986 55.7812 42.3165 55.6794 41.185C55.622 40.5654 55.5066 39.9511 55.3908 39.3353C55.3268 38.9946 55.2627 38.6535 55.2083 38.3107C55.03 37.2182 54.8518 36.1257 54.7117 35.0332C54.5497 33.771 54.9193 32.6076 55.2888 31.4447C55.3838 31.1457 55.4788 30.8467 55.5648 30.5461C56.4688 27.3726 56.8889 24.1341 56.2905 20.8566C55.9722 19.1268 55.5011 17.41 54.9918 15.7193C54.4825 14.0025 54.7372 12.3247 55.0046 10.6339C55.0834 10.1413 55.1707 9.6521 55.2578 9.16385C55.4099 8.31153 55.5614 7.46205 55.6666 6.60207C55.7685 5.78269 55.5139 5.56159 54.699 5.75668C54.1375 5.88736 53.584 6.05451 53.0295 6.22194C52.5907 6.35446 52.1513 6.48715 51.7069 6.60207C51.5281 6.65094 51.3493 6.70236 51.1705 6.7538C50.4448 6.96247 49.7176 7.17161 48.9822 7.21335C48.1419 7.25237 47.2633 7.05728 46.4357 6.83618C45.3904 6.56201 44.3503 6.25761 43.3103 5.95322C41.5381 5.43455 39.766 4.91595 37.9688 4.54712C33.7289 3.67572 29.4509 3.44161 25.1219 3.98787C20.7547 4.53412 16.5531 5.66564 12.4151 7.05728C11.7912 7.26537 11.0527 7.3304 10.4161 7.20034C8.79909 6.86219 7.20755 6.41998 5.62875 5.93876C3.97355 5.43153 3.68071 5.65263 3.97355 7.42145C4.08225 8.08238 4.19516 8.74117 4.308 9.39956C4.47272 10.3606 4.6373 11.3209 4.78842 12.2857C5.00487 13.6643 4.78842 14.9649 4.31732 16.2915C3.33694 19.0488 3.29874 21.8321 4.33006 24.6154C4.99214 26.3972 5.95979 28.0099 7.19482 29.4016C9.06647 31.5215 11.3583 33.0693 14.0575 33.8626C14.9488 34.1227 15.8627 34.3019 16.7766 34.4811C17.2335 34.5707 17.6905 34.6603 18.1446 34.76C18.1228 34.7675 18.0996 34.7758 18.0753 34.7846C17.9718 34.8219 17.8481 34.8666 17.7244 34.8771C14.3758 35.2673 11.1036 35.0332 8.03515 33.4724C4.94121 31.8987 2.75125 29.4666 1.28704 26.2801C-0.355425 22.7035 -0.342693 19.0358 0.854142 15.3941C1.3923 13.7767 1.11448 12.2795 0.834367 10.7699C0.769863 10.4223 0.705238 10.0741 0.650425 9.72351C0.624775 9.55844 0.59822 9.39336 0.571659 9.22825C0.334533 7.75421 0.0968959 6.277 0.497638 4.76822C0.943268 3.12947 2.1783 1.99795 3.88443 2.02396C4.9316 2.048 5.97877 2.28306 7.00584 2.51362C7.09019 2.53255 7.17441 2.55146 7.25848 2.57021C8.2516 2.79131 9.21926 3.09045 10.1742 3.45462C10.8115 3.70264 11.3685 3.52368 11.9345 3.34182C12.0808 3.2948 12.2278 3.24759 12.3769 3.20751C13.2847 2.96021 14.1887 2.69724 15.0925 2.43433C17.0408 1.8676 18.9881 1.30112 20.9712 0.89244C25.6184 -0.056997 30.3294 -0.265093 35.0785 0.346189C39.2038 0.879434 43.2145 1.78985 47.1233 3.20751C48.2819 3.6367 49.326 3.50664 50.4337 3.16849C50.698 3.0859 50.963 3.00099 51.2289 2.91584C52.0515 2.65231 52.8814 2.38646 53.7186 2.18003C54.8645 1.8939 56.0359 1.82887 57.1436 2.37512C58.5569 3.07745 59.1426 4.35203 59.2317 5.83472C59.2826 6.86219 59.1426 7.90267 59.0025 8.93014C58.9258 9.49571 58.8183 10.0613 58.7107 10.6279C58.5684 11.3773 58.4257 12.1285 58.3532 12.884C58.2821 13.5617 58.4425 14.262 58.5985 14.9429C58.6102 14.9937 58.6218 15.0444 58.6333 15.095C58.7891 15.77 58.9633 16.442 59.1379 17.1154C59.3198 17.8172 59.5021 18.5207 59.6646 19.2309C59.7282 19.491 59.6137 19.8422 59.4609 20.0633C58.9898 20.7916 58.9898 21.2858 59.6646 21.8061C60.0338 22.0922 60.1229 22.4304 60.1484 22.8596C60.2885 25.8509 59.8301 28.7773 59.0025 31.6386C58.9304 31.8857 58.8398 32.1314 58.7493 32.377Z" fill="white"/>
<path d="M36.4536 19.7641L36.7592 21.9491C36.8611 22.6515 37.2812 23.0156 37.9433 23.1067L37.9939 23.1145C38.9069 23.255 39.8318 23.3973 40.7444 23.6399C40.4516 23.6876 40.1587 23.7396 39.8659 23.7917C39.2802 23.8957 38.6945 23.9997 38.1088 24.0691C37.2176 24.1862 36.8738 24.4723 36.7337 25.3827C36.6555 25.8978 36.5891 26.4068 36.5225 26.9181C36.4915 27.1555 36.4605 27.3935 36.4282 27.6328C36.4154 27.7758 36.3518 27.9059 36.1735 28.0359C36.1353 27.8539 36.1098 27.6848 36.0844 27.5157C36.0445 27.2439 36.0077 26.9706 35.9707 26.6962C35.9015 26.1827 35.8319 25.6657 35.7406 25.1486C35.626 24.4853 35.2186 24.1732 34.5692 24.0821C33.9496 24.0041 33.33 23.9029 32.7103 23.8018C32.4005 23.7512 32.0907 23.7006 31.7809 23.6529V23.5359C32.2392 23.4643 32.6944 23.3961 33.1496 23.3278C33.6048 23.2595 34.06 23.1912 34.5183 23.1197C35.3586 22.9896 35.6515 22.7035 35.7915 21.8451C35.8698 21.33 35.9362 20.8209 36.0028 20.3096C36.0338 20.0722 36.0648 19.8343 36.0971 19.5951C36.1226 19.465 36.1608 19.3349 36.3518 19.1919C36.3573 19.2199 36.3628 19.2477 36.3682 19.2753C36.4007 19.4396 36.4318 19.5971 36.4536 19.7641Z" fill="white"/>
<path d="M42.8353 18.4766C42.7957 18.1818 42.7561 17.887 42.7052 17.5921C42.6415 17.215 42.4123 17.0459 42.0304 16.9939C41.6905 16.9515 41.3561 16.8982 41.0201 16.8445C40.8399 16.8158 40.6592 16.787 40.477 16.7597V16.6947L42.0049 16.4606C42.476 16.3956 42.6415 16.2395 42.7179 15.7583C42.7497 15.5502 42.7752 15.3421 42.8007 15.134C42.8261 14.9259 42.8516 14.7178 42.8834 14.5097C42.8962 14.4447 42.9216 14.3666 43.0235 14.2886C43.0489 14.3927 43.0744 14.4967 43.0871 14.6008C43.1381 15.0169 43.189 15.4201 43.2527 15.8233C43.3163 16.2135 43.5455 16.4216 43.9147 16.4736C44.4368 16.5516 44.9588 16.6297 45.4808 16.7728C45.328 16.7974 45.1752 16.8233 45.022 16.8493C44.6901 16.9057 44.3563 16.9624 44.0166 17.0069C43.52 17.0719 43.3291 17.228 43.2527 17.7352C43.2017 18.1514 43.1508 18.5676 43.0871 18.9838C43.0744 19.0618 43.0489 19.1268 42.9471 19.2049C42.9244 19.1238 42.9118 19.0325 42.9004 18.9492C42.899 18.9389 42.8976 18.9288 42.8962 18.9187C42.8749 18.7714 42.8551 18.624 42.8353 18.4766Z" fill="white"/>
<path d="M127.184 31.5231C127.896 31.8947 128.774 32.0806 129.817 32.0806H131.929C132.103 32.0806 132.251 32.0186 132.372 31.8947C132.494 31.7708 132.555 31.6204 132.555 31.4434V29.7974C132.555 29.6204 132.494 29.47 132.372 29.3461C132.251 29.2222 132.103 29.1602 131.929 29.1602H130.13C129.504 29.1602 129.061 28.9567 128.8 28.5496C128.557 28.1425 128.435 27.5761 128.435 26.8505V21.0894H131.695C131.868 21.0894 132.016 21.0274 132.138 20.9035C132.259 20.7796 132.32 20.6203 132.32 20.4256V18.9124C132.32 18.7354 132.259 18.5849 132.138 18.461C132.016 18.3371 131.868 18.2752 131.695 18.2752H128.435V13.8681C128.435 13.6911 128.374 13.5407 128.253 13.4168C128.131 13.2929 127.983 13.2309 127.809 13.2309H125.697C125.506 13.2309 125.35 13.2929 125.228 13.4168C125.124 13.5407 125.071 13.6911 125.071 13.8681V18.2752H123.012C122.838 18.2752 122.69 18.3371 122.568 18.461C122.447 18.5849 122.386 18.7354 122.386 18.9124V20.4256C122.386 20.6203 122.447 20.7796 122.568 20.9035C122.69 21.0274 122.838 21.0894 123.012 21.0894H125.071V27.116C125.071 28.2133 125.245 29.1337 125.593 29.877C125.941 30.6027 126.471 31.1514 127.184 31.5231Z" fill="white"/>
<path fill-rule="evenodd" clip-rule="evenodd" d="M77.4335 31.8947C77.5552 32.0186 77.7029 32.0806 77.8768 32.0806H85.6471C87.003 32.0806 88.1416 31.8505 89.0629 31.3903C89.9842 30.9124 90.6795 30.2576 91.1489 29.4257C91.6182 28.5938 91.8529 27.6469 91.8529 26.585C91.8529 25.5584 91.5922 24.6735 91.0707 23.9301C90.5492 23.1867 89.9494 22.6558 89.2715 22.3372C89.6018 22.1602 89.9321 21.9124 90.2623 21.5938C90.61 21.2752 90.8968 20.8681 91.1228 20.3726C91.3662 19.8593 91.4879 19.2663 91.4879 18.5938C91.4879 17.5849 91.2706 16.7 90.836 15.9389C90.4188 15.1778 89.7669 14.5849 88.8804 14.1601C87.9938 13.7176 86.8465 13.4964 85.4385 13.4964H77.8768C77.7029 13.4964 77.5552 13.5584 77.4335 13.6822C77.3118 13.8061 77.251 13.9654 77.251 14.1601V31.4434C77.251 31.6204 77.3118 31.7708 77.4335 31.8947ZM85.2299 29.2664H80.8754V23.877H85.2299C86.1512 23.877 86.8552 24.1336 87.342 24.6469C87.8461 25.1602 88.0981 25.8062 88.0981 26.585C88.0981 27.3283 87.8548 27.9655 87.368 28.4965C86.8813 29.0098 86.1686 29.2664 85.2299 29.2664ZM84.9691 21.1159H80.8754V16.284H84.9691C85.8904 16.284 86.5771 16.4964 87.0291 16.9212C87.4984 17.346 87.7331 17.9301 87.7331 18.6734C87.7331 19.3991 87.4984 19.992 87.0291 20.4522C86.5771 20.8947 85.8904 21.1159 84.9691 21.1159Z" fill="white"/>
<path fill-rule="evenodd" clip-rule="evenodd" d="M96.0652 30.6469C97.1951 31.7797 98.7249 32.3461 100.654 32.3461C101.628 32.3461 102.488 32.2222 103.236 31.9744C104.001 31.7089 104.635 31.3815 105.139 30.9921C105.643 30.6027 106.026 30.2045 106.287 29.7974C106.565 29.3903 106.712 29.0452 106.73 28.762C106.747 28.6027 106.695 28.4699 106.573 28.3638C106.469 28.2576 106.33 28.2045 106.156 28.2045H103.914C103.723 28.2045 103.575 28.231 103.47 28.2841C103.384 28.3195 103.262 28.4434 103.105 28.6558C103.019 28.7797 102.871 28.939 102.662 29.1337C102.454 29.3284 102.184 29.5054 101.854 29.6646C101.524 29.8062 101.115 29.877 100.628 29.877C100.037 29.877 99.5245 29.7177 99.0899 29.3992C98.6727 29.0806 98.3511 28.6646 98.1251 28.1514C97.9165 27.6204 97.8036 27.0452 97.7862 26.4257V26.2133H106.443C106.634 26.2133 106.791 26.1513 106.912 26.0275C107.034 25.9036 107.095 25.7531 107.095 25.5761V25.0186C107.095 23.6381 106.852 22.4257 106.365 21.3814C105.878 20.3195 105.157 19.4964 104.201 18.9124C103.245 18.3106 102.062 18.0097 100.654 18.0097C99.3854 18.0097 98.2816 18.2752 97.3429 18.8062C96.4042 19.3194 95.6654 20.0628 95.1265 21.0363C94.605 21.992 94.3095 23.1425 94.24 24.4876C94.2226 24.6469 94.2139 24.8682 94.2139 25.1513C94.2139 25.4168 94.2226 25.6381 94.24 25.8151C94.3269 27.9036 94.9353 29.5142 96.0652 30.6469ZM103.549 23.9832H97.7862V23.9035C97.7862 23.2133 97.8905 22.6115 98.0991 22.0982C98.325 21.5672 98.6553 21.1602 99.0899 20.877C99.5245 20.5761 100.046 20.4256 100.654 20.4256C101.263 20.4256 101.784 20.5761 102.219 20.877C102.653 21.1602 102.984 21.5672 103.21 22.0982C103.436 22.6115 103.549 23.2133 103.549 23.9035V23.9832Z" fill="white"/>
<path d="M114.999 32.3461C113.956 32.3461 113.061 32.2222 112.314 31.9744C111.584 31.7266 110.984 31.4169 110.515 31.0452C110.045 30.6735 109.698 30.3018 109.472 29.9301C109.246 29.5584 109.124 29.2487 109.107 29.0009C109.089 28.8062 109.141 28.6558 109.263 28.5496C109.402 28.4257 109.55 28.3638 109.706 28.3638H111.766C111.836 28.3638 111.897 28.3726 111.949 28.3903C112.001 28.408 112.07 28.4611 112.157 28.5496C112.383 28.7443 112.618 28.9478 112.861 29.1602C113.122 29.3726 113.426 29.5584 113.774 29.7177C114.122 29.8593 114.556 29.9301 115.078 29.9301C115.756 29.9301 116.321 29.7974 116.773 29.5319C117.242 29.2487 117.477 28.8505 117.477 28.3372C117.477 27.9655 117.372 27.6646 117.164 27.4345C116.972 27.2045 116.607 27.0009 116.069 26.8239C115.53 26.6292 114.765 26.4257 113.774 26.2133C112.8 25.9832 111.992 25.6912 111.349 25.3372C110.706 24.9832 110.228 24.5407 109.915 24.0097C109.602 23.4788 109.446 22.8593 109.446 22.1513C109.446 21.4611 109.645 20.8062 110.045 20.1867C110.462 19.5495 111.071 19.0274 111.87 18.6203C112.687 18.2132 113.696 18.0097 114.895 18.0097C115.834 18.0097 116.651 18.1336 117.346 18.3814C118.042 18.6115 118.615 18.9035 119.067 19.2575C119.536 19.6115 119.893 19.9743 120.136 20.346C120.38 20.7 120.51 21.0097 120.527 21.2752C120.545 21.4699 120.493 21.6292 120.371 21.7531C120.249 21.8593 120.11 21.9124 119.954 21.9124H118.024C117.937 21.9124 117.859 21.8947 117.789 21.8593C117.72 21.8239 117.65 21.7796 117.581 21.7265C117.39 21.5495 117.181 21.3637 116.955 21.169C116.729 20.9566 116.451 20.7796 116.121 20.638C115.808 20.4964 115.391 20.4256 114.869 20.4256C114.209 20.4256 113.704 20.5761 113.357 20.877C113.009 21.1602 112.835 21.523 112.835 21.9655C112.835 22.2664 112.913 22.5319 113.07 22.7619C113.244 22.9743 113.583 23.1779 114.087 23.3726C114.591 23.5673 115.356 23.7708 116.381 23.9832C117.546 24.1956 118.467 24.5142 119.145 24.9389C119.841 25.346 120.327 25.8239 120.606 26.3726C120.901 26.9036 121.049 27.4965 121.049 28.1514C121.049 28.9478 120.814 29.6646 120.345 30.3018C119.893 30.939 119.215 31.4434 118.311 31.8151C117.424 32.1691 116.321 32.3461 114.999 32.3461Z" fill="white"/>
<path fill-rule="evenodd" clip-rule="evenodd" d="M135.807 32.0806C135.633 32.0806 135.485 32.0186 135.364 31.8947C135.242 31.7708 135.181 31.6204 135.181 31.4434V14.1601C135.181 13.9654 135.242 13.8061 135.364 13.6822C135.485 13.5584 135.633 13.4964 135.807 13.4964H142.56C144.664 13.4964 146.324 13.992 147.54 14.9831C148.757 15.9743 149.366 17.4168 149.366 19.3106C149.366 20.6203 149.044 21.7088 148.401 22.5761C147.775 23.4434 146.932 24.0717 145.872 24.4611L149.679 31.231C149.731 31.3372 149.757 31.4346 149.757 31.5231C149.757 31.6824 149.696 31.8151 149.574 31.9213C149.47 32.0275 149.348 32.0806 149.209 32.0806H146.836C146.541 32.0806 146.315 32.0009 146.159 31.8416C146.002 31.6824 145.88 31.5231 145.793 31.3638L142.43 25.0717H138.805V31.4434C138.805 31.6204 138.745 31.7708 138.623 31.8947C138.519 32.0186 138.371 32.0806 138.18 32.0806H135.807ZM138.805 22.0717H142.482C143.542 22.0717 144.333 21.8327 144.855 21.3549C145.376 20.8593 145.637 20.169 145.637 19.284C145.637 18.3991 145.376 17.7088 144.855 17.2132C144.351 16.7 143.56 16.4433 142.482 16.4433H138.805V22.0717Z" fill="white"/>
<path fill-rule="evenodd" clip-rule="evenodd" d="M153.511 30.6469C154.641 31.7797 156.171 32.3461 158.101 32.3461C159.074 32.3461 159.935 32.2222 160.682 31.9744C161.447 31.7089 162.081 31.3815 162.585 30.9921C163.09 30.6027 163.472 30.2045 163.733 29.7974C164.011 29.3903 164.159 29.0452 164.176 28.762C164.193 28.6027 164.141 28.4699 164.02 28.3638C163.915 28.2576 163.776 28.2045 163.602 28.2045H161.36C161.169 28.2045 161.021 28.231 160.917 28.2841C160.83 28.3195 160.708 28.4434 160.552 28.6558C160.465 28.7797 160.317 28.939 160.108 29.1337C159.9 29.3284 159.63 29.5054 159.3 29.6646C158.97 29.8062 158.561 29.877 158.075 29.877C157.484 29.877 156.971 29.7177 156.536 29.3992C156.119 29.0806 155.797 28.6646 155.571 28.1514C155.363 27.6204 155.25 27.0452 155.232 26.4257V26.2133H163.889C164.08 26.2133 164.237 26.1513 164.359 26.0275C164.48 25.9036 164.541 25.7531 164.541 25.5761V25.0186C164.541 23.6381 164.298 22.4257 163.811 21.3814C163.324 20.3195 162.603 19.4964 161.647 18.9124C160.691 18.3106 159.509 18.0097 158.101 18.0097C156.832 18.0097 155.728 18.2752 154.789 18.8062C153.85 19.3194 153.112 20.0628 152.573 21.0363C152.051 21.992 151.756 23.1425 151.686 24.4876C151.669 24.6469 151.66 24.8682 151.66 25.1513C151.66 25.4168 151.669 25.6381 151.686 25.8151C151.773 27.9036 152.382 29.5142 153.511 30.6469ZM160.995 23.9832H155.232V23.9035C155.232 23.2133 155.337 22.6115 155.545 22.0982C155.771 21.5672 156.102 21.1602 156.536 20.877C156.971 20.5761 157.492 20.4256 158.101 20.4256C158.709 20.4256 159.231 20.5761 159.665 20.877C160.1 21.1602 160.43 21.5672 160.656 22.0982C160.882 22.6115 160.995 23.2133 160.995 23.9035V23.9832Z" fill="white"/>
<path d="M172.446 32.3461C171.403 32.3461 170.507 32.2222 169.76 31.9744C169.03 31.7266 168.43 31.4169 167.961 31.0452C167.491 30.6735 167.144 30.3018 166.918 29.9301C166.692 29.5584 166.57 29.2487 166.553 29.0009C166.535 28.8062 166.588 28.6558 166.709 28.5496C166.848 28.4257 166.996 28.3638 167.152 28.3638H169.212C169.282 28.3638 169.343 28.3726 169.395 28.3903C169.447 28.408 169.517 28.4611 169.604 28.5496C169.829 28.7443 170.064 28.9478 170.308 29.1602C170.568 29.3726 170.872 29.5584 171.22 29.7177C171.568 29.8593 172.002 29.9301 172.524 29.9301C173.202 29.9301 173.767 29.7974 174.219 29.5319C174.688 29.2487 174.923 28.8505 174.923 28.3372C174.923 27.9655 174.818 27.6646 174.61 27.4345C174.419 27.2045 174.054 27.0009 173.515 26.8239C172.976 26.6292 172.211 26.4257 171.22 26.2133C170.247 25.9832 169.438 25.6912 168.795 25.3372C168.152 24.9832 167.674 24.5407 167.361 24.0097C167.048 23.4788 166.892 22.8593 166.892 22.1513C166.892 21.4611 167.092 20.8062 167.491 20.1867C167.909 19.5495 168.517 19.0274 169.317 18.6203C170.134 18.2132 171.142 18.0097 172.341 18.0097C173.28 18.0097 174.097 18.1336 174.792 18.3814C175.488 18.6115 176.061 18.9035 176.513 19.2575C176.983 19.6115 177.339 19.9743 177.582 20.346C177.826 20.7 177.956 21.0097 177.974 21.2752C177.991 21.4699 177.939 21.6292 177.817 21.7531C177.695 21.8593 177.556 21.9124 177.4 21.9124H175.47C175.383 21.9124 175.305 21.8947 175.236 21.8593C175.166 21.8239 175.097 21.7796 175.027 21.7265C174.836 21.5495 174.627 21.3637 174.401 21.169C174.175 20.9566 173.897 20.7796 173.567 20.638C173.254 20.4964 172.837 20.4256 172.315 20.4256C171.655 20.4256 171.151 20.5761 170.803 20.877C170.455 21.1602 170.281 21.523 170.281 21.9655C170.281 22.2664 170.36 22.5319 170.516 22.7619C170.69 22.9743 171.029 23.1779 171.533 23.3726C172.037 23.5673 172.802 23.7708 173.828 23.9832C174.992 24.1956 175.914 24.5142 176.592 24.9389C177.287 25.346 177.774 25.8239 178.052 26.3726C178.347 26.9036 178.495 27.4965 178.495 28.1514C178.495 28.9478 178.26 29.6646 177.791 30.3018C177.339 30.939 176.661 31.4434 175.757 31.8151C174.871 32.1691 173.767 32.3461 172.446 32.3461Z" fill="white"/>
<path d="M184.63 31.5231C185.342 31.8947 186.22 32.0806 187.263 32.0806H189.375C189.549 32.0806 189.697 32.0186 189.819 31.8947C189.94 31.7708 190.001 31.6204 190.001 31.4434V29.7974C190.001 29.6204 189.94 29.47 189.819 29.3461C189.697 29.2222 189.549 29.1602 189.375 29.1602H187.576C186.95 29.1602 186.507 28.9567 186.246 28.5496C186.003 28.1425 185.881 27.5761 185.881 26.8505V21.0894H189.141C189.315 21.0894 189.462 21.0274 189.584 20.9035C189.706 20.7796 189.767 20.6203 189.767 20.4256V18.9124C189.767 18.7354 189.706 18.5849 189.584 18.461C189.462 18.3371 189.315 18.2752 189.141 18.2752H185.881V13.8681C185.881 13.6911 185.821 13.5407 185.699 13.4168C185.577 13.2929 185.429 13.2309 185.256 13.2309H183.143C182.952 13.2309 182.796 13.2929 182.674 13.4168C182.57 13.5407 182.518 13.6911 182.518 13.8681V18.2752H180.458C180.284 18.2752 180.136 18.3371 180.015 18.461C179.893 18.5849 179.832 18.7354 179.832 18.9124V20.4256C179.832 20.6203 179.893 20.7796 180.015 20.9035C180.136 21.0274 180.284 21.0894 180.458 21.0894H182.518V27.116C182.518 28.2133 182.692 29.1337 183.039 29.877C183.387 30.6027 183.917 31.1514 184.63 31.5231Z" fill="white"/>
</svg>
