<svg width="24" height="24" viewBox="0 0 24 24" fill="none" xmlns="http://www.w3.org/2000/svg">
<path d="M20.4599 9.63031C20.3195 8.16922 19.8031 6.76939 18.9611 5.56713C18.119 4.36486 16.98 3.40114 15.6549 2.7698C14.3298 2.13846 12.8638 1.86103 11.3996 1.96451C9.93543 2.068 8.52301 2.54887 7.29988 3.36031C6.24908 4.06295 5.36693 4.98961 4.71682 6.0737C4.06672 7.15779 3.66478 8.37241 3.53988 9.63031C3.41736 10.88 3.57455 12.1412 4.00005 13.3226C4.42555 14.5039 5.10868 15.5758 5.99988 16.4603L11.2999 21.7703C11.3928 21.864 11.5034 21.9384 11.6253 21.9892C11.7472 22.04 11.8779 22.0661 12.0099 22.0661C12.1419 22.0661 12.2726 22.04 12.3945 21.9892C12.5163 21.9384 12.6269 21.864 12.7199 21.7703L17.9999 16.4603C18.8911 15.5758 19.5742 14.5039 19.9997 13.3226C20.4252 12.1412 20.5824 10.88 20.4599 9.63031ZM16.5999 15.0503L11.9999 19.6503L7.39988 15.0503C6.72197 14.3724 6.20268 13.5526 5.87935 12.6501C5.55601 11.7475 5.43667 10.7845 5.52988 9.83031C5.6237 8.86141 5.93164 7.92547 6.43145 7.09015C6.93126 6.25483 7.61044 5.54102 8.41988 5.00031C9.48083 4.29554 10.7262 3.9196 11.9999 3.9196C13.2736 3.9196 14.5189 4.29554 15.5799 5.00031C16.3869 5.53893 17.0646 6.24959 17.5642 7.08125C18.0639 7.9129 18.3732 8.84491 18.4699 9.81031C18.5661 10.7677 18.4483 11.7346 18.1249 12.6409C17.8014 13.5471 17.2805 14.3701 16.5999 15.0503ZM11.9999 6.00031C11.1099 6.00031 10.2398 6.26423 9.49982 6.7587C8.75979 7.25316 8.18302 7.95597 7.84242 8.77823C7.50183 9.6005 7.41271 10.5053 7.58635 11.3782C7.75998 12.2511 8.18856 13.053 8.8179 13.6823C9.44724 14.3116 10.2491 14.7402 11.122 14.9138C11.9949 15.0875 12.8997 14.9984 13.722 14.6578C14.5442 14.3172 15.247 13.7404 15.7415 13.0004C16.236 12.2604 16.4999 11.3903 16.4999 10.5003C16.4972 9.30765 16.0223 8.16459 15.1789 7.32125C14.3356 6.4779 13.1925 6.00295 11.9999 6.00031ZM11.9999 13.0003C11.5054 13.0003 11.0221 12.8537 10.611 12.579C10.1998 12.3043 9.8794 11.9138 9.69018 11.457C9.50096 11.0002 9.45145 10.4975 9.54792 10.0126C9.64438 9.52763 9.88248 9.08217 10.2321 8.73254C10.5817 8.38291 11.0272 8.14481 11.5122 8.04835C11.9971 7.95188 12.4998 8.00139 12.9566 8.19061C13.4134 8.37983 13.8039 8.70026 14.0786 9.11138C14.3533 9.52251 14.4999 10.0059 14.4999 10.5003C14.4999 11.1634 14.2365 11.7992 13.7676 12.2681C13.2988 12.7369 12.6629 13.0003 11.9999 13.0003Z" fill="#67D9B7"/>
</svg>
