<svg width="24" height="24" viewBox="0 0 24 24" fill="none" xmlns="http://www.w3.org/2000/svg">
<path d="M10 14C9.69555 13.9964 9.39732 14.0862 9.14544 14.2573C8.89357 14.4284 8.70015 14.6725 8.59121 14.9568C8.48228 15.2411 8.46306 15.552 8.53615 15.8476C8.60923 16.1431 8.77111 16.4092 9 16.61V18C9 18.2652 9.10536 18.5196 9.29289 18.7071C9.48043 18.8946 9.73478 19 10 19C10.2652 19 10.5196 18.8946 10.7071 18.7071C10.8946 18.5196 11 18.2652 11 18V16.61C11.2289 16.4092 11.3908 16.1431 11.4639 15.8476C11.5369 15.552 11.5177 15.2411 11.4088 14.9568C11.2999 14.6725 11.1064 14.4284 10.8546 14.2573C10.6027 14.0862 10.3045 13.9964 10 14ZM15 10V8C15 6.67392 14.4732 5.40215 13.5355 4.46447C12.5979 3.52678 11.3261 3 10 3C8.67392 3 7.40215 3.52678 6.46447 4.46447C5.52678 5.40215 5 6.67392 5 8V10C4.20435 10 3.44129 10.3161 2.87868 10.8787C2.31607 11.4413 2 12.2044 2 13V20C2 20.7956 2.31607 21.5587 2.87868 22.1213C3.44129 22.6839 4.20435 23 5 23H15C15.7956 23 16.5587 22.6839 17.1213 22.1213C17.6839 21.5587 18 20.7956 18 20V13C18 12.2044 17.6839 11.4413 17.1213 10.8787C16.5587 10.3161 15.7956 10 15 10ZM7 8C7 7.20435 7.31607 6.44129 7.87868 5.87868C8.44129 5.31607 9.20435 5 10 5C10.7956 5 11.5587 5.31607 12.1213 5.87868C12.6839 6.44129 13 7.20435 13 8V10H7V8ZM16 20C16 20.2652 15.8946 20.5196 15.7071 20.7071C15.5196 20.8946 15.2652 21 15 21H5C4.73478 21 4.48043 20.8946 4.29289 20.7071C4.10536 20.5196 4 20.2652 4 20V13C4 12.7348 4.10536 12.4804 4.29289 12.2929C4.48043 12.1054 4.73478 12 5 12H15C15.2652 12 15.5196 12.1054 15.7071 12.2929C15.8946 12.4804 16 12.7348 16 13V20Z" fill="#67D9B7"/>
<path d="M17.8285 21H19C19.7957 21 20.5587 20.6839 21.1213 20.1213C21.684 19.5587 22 18.7956 22 18V11C22 10.2044 21.684 9.44129 21.1213 8.87868C20.5587 8.31607 19.7957 8 19 8V6C19 4.67392 18.4732 3.40215 17.5356 2.46447C16.5979 1.52678 15.3261 1 14 1C12.6739 1 11.4022 1.52678 10.4645 2.46447C10.2962 2.63276 10.1411 2.81181 10 3C10.7977 3 11.5758 3.19064 12.2734 3.54669C12.7755 3.19332 13.3778 3 14 3C14.7957 3 15.5587 3.31607 16.1213 3.87868C16.684 4.44129 17 5.20435 17 6V8H15V10H19C19.2652 10 19.5196 10.1054 19.7071 10.2929C19.8947 10.4804 20 10.7348 20 11V18C20 18.2652 19.8947 18.5196 19.7071 18.7071C19.5196 18.8946 19.2652 19 19 19H18V20C18 20.3439 17.941 20.6818 17.8285 21Z" fill="#67D9B7"/>
</svg>
